<svg id="Capa_1" data-name="Capa 1" xmlns="http://www.w3.org/2000/svg" viewBox="0 0 559.18 357.01"><defs><style>.cls-1{fill:#161615;fill-rule:evenodd;}</style></defs><path class="cls-1" d="M215.27,351a9.37,9.37,0,0,1-1.93,5.82c-1.84,2.56-3.65,5.14-5.31,7.78a41.93,41.93,0,0,1-13.61,13.19A92.78,92.78,0,0,1,178.21,386a41.83,41.83,0,0,0-6.9,3.23,23.27,23.27,0,0,1-3.86,1.66,7.86,7.86,0,0,0-1.7.82,2.35,2.35,0,0,0-1.12,2.67c.5,1.72,1,3.44,1.55,5.14a19.64,19.64,0,0,1,.73,5.94v6.31a23.69,23.69,0,0,0,.43,5.63,5.23,5.23,0,0,1-1.6,5c-.24.26-.48.52-.74.77a8.92,8.92,0,0,0-2.6,4c-.62,2.21-2.47,3.6-4.76,4.62a2.49,2.49,0,0,1-2.57-.28,3.63,3.63,0,0,1-1.58-2.23,13.33,13.33,0,0,1-.23-2,54.14,54.14,0,0,0-2-10.48,13,13,0,0,0-1.44-3.43,13.74,13.74,0,0,1-1.71-8.08c0-.88.19-1.77.16-2.65a21.18,21.18,0,0,0-.29-3,2.77,2.77,0,0,0-1.77-2.09c-.57-.26-1.22-.41-1.8-.67a6.78,6.78,0,0,1-1.27-.76,1.66,1.66,0,0,1-.39-2.42,10.31,10.31,0,0,1,.92-1.08c.41-.43.85-.84,1.29-1.26A3.29,3.29,0,0,0,146,388a27.16,27.16,0,0,0-2-6.07,9.6,9.6,0,0,1-1.11-5.5,12.45,12.45,0,0,0-.19-2.65c-.48-3.29-1.24-6.56-1.18-9.9a6.66,6.66,0,0,0-.66-2.92,7.73,7.73,0,0,1,.58-7.4,22.2,22.2,0,0,0,1.57-3.4,7.82,7.82,0,0,1,2.72-3.59,42.91,42.91,0,0,1,4.61-3.13,38,38,0,0,0,7.28-5.09,23.45,23.45,0,0,1,8.41-4.84c1.83-.63,3.61-1.35,5.41-2a50.22,50.22,0,0,1,7.1-2,10.9,10.9,0,0,1,5.08.06c.26.06.5.16.76.2a19.57,19.57,0,0,1,10.23,4.7,19.1,19.1,0,0,0,4.79,2.91c1.85.85,3.67,1.74,5.49,2.63a35.75,35.75,0,0,1,7.14,4.71l.28.23C214.47,346.6,215.58,348.64,215.27,351Zm-28.12,6.07c-.12-.76-.25-1.63-.4-2.5a3.49,3.49,0,0,0-1.22-2.05,22.19,22.19,0,0,0-10-5.05,5.19,5.19,0,0,0-3.1.22A93.57,93.57,0,0,0,163.1,352a4.31,4.31,0,0,0-.59.44,8.66,8.66,0,0,1-3.73,1.8,4.25,4.25,0,0,0-3.45,3.29c-.11.44-.24.87-.31,1.3a5.27,5.27,0,0,0,1.19,4.74c.32.35.57.75.86,1.12a5.76,5.76,0,0,1,1.26,3.44,26.89,26.89,0,0,1-.1,3c-.08.77-.29,1.53-.44,2.29a7.7,7.7,0,0,0-.24,1.31,5.35,5.35,0,0,0,.15,1.65,2.89,2.89,0,0,0,3.81,2c3.15-.78,6.37-1.44,9.08-3.14.63-.4,1.4-.64,2.06-1a81.09,81.09,0,0,0,9.48-6,18.24,18.24,0,0,0,1.94-1.66,6.47,6.47,0,0,0,2-3.54C186.45,361.14,186.79,359.17,187.15,357.06Z" transform="translate(-17.47 -179.81)"/><path class="cls-1" d="M270,352.43a5.8,5.8,0,0,1-1.95,4.24,31,31,0,0,1-2.9,2.24c-.79.58-1.66,1.09-2.43,1.69a4.87,4.87,0,0,0-2.26,3.74,6.72,6.72,0,0,1-2.66,5c-1.53,1.37-3,2.78-4.45,4.23a31.65,31.65,0,0,0-3,3.49,15.46,15.46,0,0,0-2.78,10.19,19.48,19.48,0,0,0,.47,4,17.79,17.79,0,0,1,.48,5.28,12.24,12.24,0,0,0,1.34,6.47,17.44,17.44,0,0,1,1.79,5.76,17.49,17.49,0,0,0,1.62,5.11c.19.41.38.82.59,1.23a5.76,5.76,0,0,1,.27,5.16c-.44,1-.73,2.13-1.17,3.17a6,6,0,0,1-1,1.43,2.51,2.51,0,0,1-2,.86,14.16,14.16,0,0,1-2.34-.23c-.76-.14-1.49-.42-2.26-.57a5.1,5.1,0,0,0-2.71.23c-.72.26-1.39.63-2.12.87-3.11,1.06-6.26-.29-7-3.06-.54-1.93-1-3.89-1.34-5.85a4.84,4.84,0,0,1,.13-2.3,13.06,13.06,0,0,0,.11-5.6c-.58-4.73-1.53-9.41-2.57-14.08a18,18,0,0,1-.23-2.65c-.09-1.32-.1-2.65-.24-4-.68-6.34,1.62-12,5.66-17.24a35.84,35.84,0,0,1,2.62-2.91,41.31,41.31,0,0,0,5.64-7.19c.6-1,1.28-1.93,2-2.88a13.14,13.14,0,0,1,4.34-3.8c.33-.19.64-.39,1-.56a19.84,19.84,0,0,0,7.12-5.63,9.22,9.22,0,0,1,1.84-1.73,7.5,7.5,0,0,1,3.1-1.39c2.9-.58,5.4.25,6.43,3.06A10.85,10.85,0,0,1,270,352.43Z" transform="translate(-17.47 -179.81)"/><path class="cls-1" d="M115.53,455.89a3.5,3.5,0,0,1-2.36,3.52,9.59,9.59,0,0,1-2.24.6,18.25,18.25,0,0,1-2,.19,6.32,6.32,0,0,0-4.63,2.23c-.14.19-.29.37-.44.55a6.25,6.25,0,0,1-3,2.07,10.49,10.49,0,0,0-5.3,3.83A39.9,39.9,0,0,0,93,472.6a47.3,47.3,0,0,1-5,6.77c-2.52,2.83-5,5.69-7.49,8.55a23.12,23.12,0,0,1-6.62,5.17c-2.22,1.19-4.43,2.4-6.73,3.48a34.42,34.42,0,0,0-6.69,4.07,28.17,28.17,0,0,1-4.35,2.86c-4.94,2.6-9.21,5.89-13.6,9.07a34.35,34.35,0,0,0-3.23,2.91c-1.75,1.64-3.43,3.35-5.23,5a16.44,16.44,0,0,0-4.23,5.16,6.29,6.29,0,0,1-1.7,2.21,4.47,4.47,0,0,1-4.38.72c-1.43-.56-2.83-1.18-4.23-1.77-.35-.15-.7-.31-1-.49a2.28,2.28,0,0,1-.55-.47c-.38-.47-.7-1-.36-1.54,1.77-2.91,3.93-5.52,7.73-6.8a13.39,13.39,0,0,0,4.78-2.87c1.89-1.7,3.8-3.38,5.68-5.08a53.42,53.42,0,0,1,6.72-5.13c1.56-1,3-2.14,4.52-3.22,1.3-.93,2.55-1.91,3.92-2.78a24.46,24.46,0,0,0,4.57-3.64,33.7,33.7,0,0,1,5.07-4.17,37.33,37.33,0,0,0,3.72-3c3.87-3.47,7.71-7,11.75-10.3s8.1-7,12.17-10.43a13.44,13.44,0,0,0,4.3-5.86,11.05,11.05,0,0,1,3.87-5.31,9.11,9.11,0,0,1,6.39-2.17,13.47,13.47,0,0,0,4.65-.56,17.32,17.32,0,0,1,2.69-.54,4.37,4.37,0,0,1,5.39,3.47Z" transform="translate(-17.47 -179.81)"/><path class="cls-1" d="M352.23,247c.22-1.25.47-2.79.77-4.31.39-2,.82-3.92,1.2-5.88a5.6,5.6,0,0,0-.3-3.28,7.6,7.6,0,0,1,.23-5.84c2.41-6.2,4.44-12.5,6.23-18.85.18-.64.3-1.3.47-1.95a46.26,46.26,0,0,1,2-6.08,51.27,51.27,0,0,0,3.57-11.53,5.24,5.24,0,0,1,1.9-3.21c.92-.79,1.92-1.52,2.79-2.35.7-.65,1.24-1.43,1.89-2.12a18.47,18.47,0,0,1,1.59-1.46,1.42,1.42,0,0,1,1.44-.28,1.48,1.48,0,0,1,1.07,1.29,6.74,6.74,0,0,1-.18,1c-.21,1.47.85,2.61,2.6,2.72,1.05.07,2.1,0,3.16.05a2.93,2.93,0,0,1,2.83,1.95,3.94,3.94,0,0,1-.53,3.53,21.22,21.22,0,0,1-1.53,1.93,32.42,32.42,0,0,0-6.94,13.26c-.37,1.62-1.09,3.18-1.59,4.79a62.17,62.17,0,0,1-2.62,6.95,48.79,48.79,0,0,0-1.82,5.08c-.69,2.13-1.21,4.3-1.95,6.42a37.57,37.57,0,0,0-2,9.12,11.62,11.62,0,0,1-.17,1.32,4.14,4.14,0,0,1-2.82,3,18.6,18.6,0,0,1-2.26.54c-1.91.46-2.8,1.44-2.86,3.14,0,1,0,2-.08,3a3,3,0,0,1-1.27,2,2.62,2.62,0,0,1-2.89.17,3.57,3.57,0,0,1-1.8-2.48A12.26,12.26,0,0,1,352.23,247Z" transform="translate(-17.47 -179.81)"/><path class="cls-1" d="M184,188.89a6.21,6.21,0,0,1,1.6.35,52,52,0,0,1,6,3.18,74.18,74.18,0,0,1,12.73,10.39,23.51,23.51,0,0,1,3.77,5c.6,1.11,1.22,2.21,1.9,3.28a33.66,33.66,0,0,1,4.79,12.23,19.7,19.7,0,0,0,2.16,6c.65,1.21,1.32,2.41,2,3.61a6.53,6.53,0,0,1,1,3.85,9.89,9.89,0,0,0,2,7,12.51,12.51,0,0,1,1.65,4.07,2.51,2.51,0,0,1-.42,2.24,10.38,10.38,0,0,1-1.7,1.81c-2.33,1.81-4.79,1.82-6.94-.15a43.61,43.61,0,0,1-4.32-4.72,5.72,5.72,0,0,1-.94-2.16,39,39,0,0,0-2.89-7.23c-.78-1.52-1.81-2.95-2.52-4.49s-1.11-3.17-1.74-4.74a23,23,0,0,0-1.51-3.07C198,221,196,216.45,193.3,212.12c-1.56-2.55-2.89-5.21-4.38-7.8-.63-1.09-1.38-2.13-2.08-3.2a12.53,12.53,0,0,0-3.79-3.78,11.67,11.67,0,0,1-1.18-.88,4.46,4.46,0,0,1-.23-6.66A3.35,3.35,0,0,1,184,188.89Z" transform="translate(-17.47 -179.81)"/><path class="cls-1" d="M379.67,472.44a6.15,6.15,0,0,1,1.59.35,52.8,52.8,0,0,1,6,3.17A75.09,75.09,0,0,1,400,486.36a23.27,23.27,0,0,1,3.77,5c.6,1.11,1.22,2.21,1.9,3.28a33.66,33.66,0,0,1,4.79,12.23,19.67,19.67,0,0,0,2.15,6l2,3.61a6.51,6.51,0,0,1,1,3.85,9.85,9.85,0,0,0,2,7,12.44,12.44,0,0,1,1.64,4.07,2.48,2.48,0,0,1-.41,2.24,9.71,9.71,0,0,1-1.7,1.81c-2.33,1.82-4.79,1.82-6.94-.14a45.77,45.77,0,0,1-4.33-4.72,5.86,5.86,0,0,1-.93-2.16,39,39,0,0,0-2.89-7.23c-.78-1.52-1.81-3-2.52-4.49s-1.12-3.18-1.74-4.74a23,23,0,0,0-1.51-3.07c-2.54-4.37-4.63-8.92-7.28-13.25-1.56-2.56-2.9-5.21-4.39-7.8-.62-1.09-1.38-2.13-2.08-3.2a12.5,12.5,0,0,0-3.78-3.78,11.67,11.67,0,0,1-1.18-.88,4.45,4.45,0,0,1-.23-6.66A3.35,3.35,0,0,1,379.67,472.44Z" transform="translate(-17.47 -179.81)"/><path class="cls-1" d="M503.13,500.73c-.78,0-1.57.12-2.36.16a6.3,6.3,0,0,1-5.63-2.49,10.81,10.81,0,0,1-1.12-1.75,15.9,15.9,0,0,0-5.95-6.48,8.4,8.4,0,0,1-3.62-4.25,14,14,0,0,0-3.14-4.56c-2.08-2.15-4.11-4.32-6.25-6.42a17.63,17.63,0,0,1-4-5.65,26.46,26.46,0,0,0-1.58-3,5.67,5.67,0,0,0-1.23-1.27,2.4,2.4,0,0,0-2.22-.24c-.68.33-1.32.72-2,1.08-.44.25-.86.52-1.32.74a2.48,2.48,0,0,1-2.25,0,2,2,0,0,1-1.29-1.93,17.31,17.31,0,0,1,.4-1.95,8.08,8.08,0,0,0-.37-5.22,6.16,6.16,0,0,1-.46-1.61,3.67,3.67,0,0,1,1-3.43c.26-.25.49-.52.76-.77,1.11-1.06,1.74-2.2,1-3.63a2.5,2.5,0,0,1-.22-1,2.4,2.4,0,0,1,.89-2.12,3.67,3.67,0,0,1,4-.66,6.38,6.38,0,0,1,1.62.92c1.38,1.18,2.76,2.37,4,3.65a37.67,37.67,0,0,1,2.94,3.53c1.83,2.42,3.75,4.81,5.54,7.25,3.17,4.32,6.38,8.65,8.64,13.39a17.78,17.78,0,0,0,3.49,4.77c1.83,1.88,3.61,3.8,5.31,5.77,2.57,2.95,5.32,5.77,8.12,8.55,1.1,1.09,2.1,2.27,3.09,3.43a4.2,4.2,0,0,1,.93,2.51,2.9,2.9,0,0,1-3.11,2.84C505.5,500.89,504.32,500.79,503.13,500.73Z" transform="translate(-17.47 -179.81)"/><path class="cls-1" d="M565.2,263.26c1.8.05,2.94.88,3.18,2,.14.65.2,1.31.36,1.95a1.85,1.85,0,0,0,1.57.84c.77-.14,1.53-.35,2.3-.48a3.65,3.65,0,0,1,4,2.51,2.17,2.17,0,0,1-.12,1,4.76,4.76,0,0,1-1.72,2.18,15.64,15.64,0,0,1-4,2.17c-6.21,2.43-12.23,5.18-18.19,8a17.84,17.84,0,0,0-1.69.86,37,37,0,0,1-6.88,3.23,20.87,20.87,0,0,0-5,2.59,22.86,22.86,0,0,1-8,3.52c-2.14.51-4.17,1.36-6.26,2s-4.16,1.38-6.29,2c-2.83.78-5.1-.16-5.85-2.49a12.82,12.82,0,0,0-2.36-4.52,3.29,3.29,0,0,1-.49-.9,1.54,1.54,0,0,1,.19-1.6,10.6,10.6,0,0,1,1.79-1.75,11.37,11.37,0,0,1,4.94-2,38.47,38.47,0,0,0,7.72-2.49c2.48-1,5-2.05,7.48-3a68.58,68.58,0,0,0,8.61-4.07A60,60,0,0,1,547,271.7a51.11,51.11,0,0,0,5.82-2.8c2.76-1.51,5.57-3,8.37-4.42a8.21,8.21,0,0,1,1.73-.79A20.83,20.83,0,0,1,565.2,263.26Z" transform="translate(-17.47 -179.81)"/><path class="cls-1" d="M558.58,409.67a9.24,9.24,0,0,1-3.52-.6c-1-.35-1.9-.76-2.86-1.12-.72-.27-2.07.36-2.15,1s0,1.54-.12,2.31a3.79,3.79,0,0,1-2.56,3.12,3.56,3.56,0,0,1-2.3.25c-.88-.22-1.76-.45-2.61-.75a34.31,34.31,0,0,0-6-1.61,15.38,15.38,0,0,1-6.67-2.73,48.15,48.15,0,0,0-7.55-4.22,18.73,18.73,0,0,0-5.14-1.65,27.86,27.86,0,0,1-8.75-2.91,21,21,0,0,0-9.33-2.42,7.3,7.3,0,0,1-3.4-.72,3.57,3.57,0,0,1-2.13-4,6,6,0,0,1,4-4.64,36.75,36.75,0,0,0,5.14-2.45,6,6,0,0,1,5.6-.33c2.4.9,4.86,1.69,7.29,2.54,7.17,2.51,14.35,5,21.51,7.53,2.66.95,5.3,2,8.06,2.69a23.66,23.66,0,0,1,2.87,1.11c2.59,1.09,5.15,2.22,7.76,3.28a13.88,13.88,0,0,1,3.33,1.75,11.6,11.6,0,0,1,1.55,1.5,1.46,1.46,0,0,1,.2,1.87,2.49,2.49,0,0,1-1.88,1.1Z" transform="translate(-17.47 -179.81)"/><path class="cls-1" d="M284.83,453.94a4.18,4.18,0,0,1-.26,1c-.31.61-.71,1.19-1,1.79a9.11,9.11,0,0,0-1.16,3.5c-.14,1.66-.35,3.31-.45,5a22.57,22.57,0,0,1-.71,4.6,27.93,27.93,0,0,0-.88,3.91,16.72,16.72,0,0,1-1.13,4.53,6.13,6.13,0,0,0-.54,1.93c-.24,2.87-.92,5.71-.88,8.6,0,1.43.33,12.58,1.14,14.76a17.8,17.8,0,0,1,.64,8.23c-.33,3-.8,5.94-1.2,8.91a4.42,4.42,0,0,1-1.43,2.68,20.66,20.66,0,0,1-4.52,3.19,2.26,2.26,0,0,1-2.24,0,1.78,1.78,0,0,1-1.06-2c.32-1.41.76-2.81,1.09-4.22a22.74,22.74,0,0,0,.51-3c.1-.95-1.26-14.71-.64-26.84.6-11.46,5.95-27.56,6.05-29.09.12-1.88.35-3.75.51-5.63a5.07,5.07,0,0,1,2.21-3.76,4,4,0,0,1,5.7.91A3.57,3.57,0,0,1,284.83,453.94Z" transform="translate(-17.47 -179.81)"/><path class="cls-1" d="M386.12,330.89c0,1,0,2,0,3a23.11,23.11,0,0,1-.59,5.61c-.43,1.62-.66,3.28-.94,4.92a8.42,8.42,0,0,1-1.08,2.83,3.27,3.27,0,0,1-3.6,1.45,14.79,14.79,0,0,1-1.53-.32,7.85,7.85,0,0,0-3.51.05,3.9,3.9,0,0,1-4.52-2.44,23,23,0,0,1-.87-3.23,15.16,15.16,0,0,1-.2-1.65,32.79,32.79,0,0,0-2.24-8.74c-.44-1-.65-2.14-1-3.2a4.94,4.94,0,0,1,.54-4.52,11.27,11.27,0,0,0,1.83-5.37,6.17,6.17,0,0,1,1.08-2.82c.84-1.26,1.62-2.54,2.47-3.79a6.47,6.47,0,0,1,3.2-2.39,3.81,3.81,0,0,1,3,.14,5.48,5.48,0,0,1,2.59,2.43c.74,1.42,1.51,2.83,2.12,4.29a35.26,35.26,0,0,0,2.48,5.24,5.4,5.4,0,0,1,.75,3.21c-.07,1.77-.11,3.54-.16,5.32Z" transform="translate(-17.47 -179.81)"/><path class="cls-1" d="M69.29,268.16a2.88,2.88,0,0,1,.85-2.09,17.41,17.41,0,0,1,1.64-1.44,3.77,3.77,0,0,0,1.62-3.88c-.19-1.21-.39-2.41-.51-3.62a3.5,3.5,0,0,1,1.62-3.25,3.12,3.12,0,0,1,3.9.18,7.19,7.19,0,0,1,1.27,1.66,11.4,11.4,0,0,1,1.25,4.84,19.29,19.29,0,0,0,2.24,7.7c.67,1.32,1.27,2.67,1.93,4a13.65,13.65,0,0,0,5.11,5.8,18.19,18.19,0,0,1,3.63,3,36.38,36.38,0,0,0,7.61,6.25,33.45,33.45,0,0,1,7.4,6c.8.87,1.82,1.6,2.71,2.42a8.91,8.91,0,0,1,1.27,1.26,2.71,2.71,0,0,1,.36,2.86,4.88,4.88,0,0,1-2.42,2.53,2.9,2.9,0,0,1-2.63,0,10,10,0,0,1-2.1-1.49c-.72-.64-1.27-1.41-2-2.09a10.38,10.38,0,0,0-4.74-2.88A16.28,16.28,0,0,1,90.61,290a38.69,38.69,0,0,0-4.68-4.92,34.14,34.14,0,0,1-4.25-4.78,28.66,28.66,0,0,0-9.07-8.21,16.4,16.4,0,0,1-2.38-1.72A2.71,2.71,0,0,1,69.29,268.16Z" transform="translate(-17.47 -179.81)"/><path class="cls-1" d="M45.05,375a11.14,11.14,0,0,0,4.43-.42,21.88,21.88,0,0,1,2.66-.63,10.45,10.45,0,0,1,5.81.38,15.06,15.06,0,0,0,6.94.95c.91-.07,1.84-.07,2.76-.07a5.66,5.66,0,0,1,3.57,1.24,5,5,0,0,1,2.25,4.74c-.19,1.32-.37,2.64-.56,4a3.94,3.94,0,0,1-.22.63,2.3,2.3,0,0,1-2.88,1.11,17.17,17.17,0,0,1-1.75-.77c-3.4-1.77-7.19-2-11.05-2-.65,0-1.31.13-2,.13a9.09,9.09,0,0,0-4.81,1.28,8.09,8.09,0,0,1-3.68,1.08A16.14,16.14,0,0,0,42,387.74c-1.68.64-3.42,1.17-5.15,1.7A4.92,4.92,0,0,1,33.1,389a6.5,6.5,0,0,1-2.44-2.13c-1.4-2.05-1-4.19,1.15-5.67a9.4,9.4,0,0,1,1.65-.91,15.41,15.41,0,0,0,4.34-2.85c.35-.33.75-.62,1.14-.92A7.73,7.73,0,0,1,43.62,375Z" transform="translate(-17.47 -179.81)"/><path class="cls-1" d="M347.57,398.85a17.59,17.59,0,0,0-5.06-3.67,3.56,3.56,0,0,0-2.67-.17l-3,.9a108.34,108.34,0,0,1-27.08,4.35,17,17,0,0,1-4.68-.46c-2.48-.6-4-2.32-3.71-4.49a2.23,2.23,0,0,1,.6-1.18,6.15,6.15,0,0,1,1.46-1.1,39.56,39.56,0,0,1,5.91-2.69,100,100,0,0,1,11.2-3.25c3.68-.86,7.42-1.5,11.17-2.14s6.77-2.38,8-5.74a3.75,3.75,0,0,0,0-2.92c-1.12-2.48-2.15-5-3.28-7.47a13,13,0,0,0-1.52-2.69,44.66,44.66,0,0,0-6.77-6.92,11.87,11.87,0,0,0-8.29-2.55,22.84,22.84,0,0,0-7.34,1.23c-3.69,1.45-7.49,2.67-10.85,4.72a92.45,92.45,0,0,0-8.16,5.76,19.35,19.35,0,0,0-2.38,2.22,27.56,27.56,0,0,0-7.84,19.1,19.33,19.33,0,0,0,.78,5.94c2.19,8.31,7.48,14.77,16.28,19.14a12.27,12.27,0,0,0,6.82,1.25c1.58-.16,3.14-.37,4.69-.65,4-.73,7.95-1.6,12-2.24a35.07,35.07,0,0,0,11.9-4.3,30.71,30.71,0,0,1,7.27-3.28,7.36,7.36,0,0,0,5-4.81A1.74,1.74,0,0,0,347.57,398.85Zm-28.11-24.41a28.08,28.08,0,0,0-6,1.79l-1.67,1-2.13,1.22c-.84.6-1.71,1.16-2.47,1.66a8.29,8.29,0,0,1-1.69.84,4.49,4.49,0,0,1-1.37.24,3.33,3.33,0,0,1-1.89-.56,2.46,2.46,0,0,1-.75-3.29l.07-.13a3.18,3.18,0,0,1,.43-.62,58.69,58.69,0,0,1,6.92-6.75,18.64,18.64,0,0,1,3.79-2.38,10.14,10.14,0,0,1,4.42-1h.25a11.19,11.19,0,0,1,6.17,2,3.88,3.88,0,0,1,.72.62l.05.05a2.53,2.53,0,0,1,.62,2.4,3,3,0,0,1-1.75,2,10.42,10.42,0,0,1-1.74.58" transform="translate(-17.47 -179.81)"/><path class="cls-1" d="M389.75,397.38A25.75,25.75,0,0,1,392.7,401c5.12,4.79,11,7.75,17.38,8.27,16.08-1,28.74-12,28.74-25.37a21.41,21.41,0,0,0-2.32-9.64c-.13-.12-.26-.26-.4-.38a10.46,10.46,0,0,1-2.39-3c-.7-1.43-1.3-2.89-2-4.33s-1.23-2.68-1.89-4a43.56,43.56,0,0,0-4.51-6.6,17.74,17.74,0,0,0-4.48-4.59,4,4,0,0,1-.83-.7,2.62,2.62,0,0,1-.68-2.51,6.27,6.27,0,0,1,2.38-3.37,2.87,2.87,0,0,1,2.94-.08c.63.4,1.19.86,1.77,1.31a25.5,25.5,0,0,0,2.29,1.83c2.83,1.77,4.06,1.49,6.11-.38a20.32,20.32,0,0,0,5.51-8.71c.67-2-.29-3.15-2.86-3.37a6.1,6.1,0,0,1-3.83-1.49c-1.64-1.51-3.83-2.32-5.94-3.22a7.4,7.4,0,0,0-5.36-.16,20.37,20.37,0,0,0-8.56,5.17c-1.87,2-3.62,4.08-5.39,6.15a14.7,14.7,0,0,0-1.62,2.27c-1,1.79-2.1,3.58-3,5.43a24,24,0,0,0-1.58,4.44,5.88,5.88,0,0,0,1.74,5.9c1,1,2.13,2,3.27,2.86a26.61,26.61,0,0,0,2.47,1.66,14,14,0,0,1,4.57,4.51,41.81,41.81,0,0,0,2.56,3.73,19.74,19.74,0,0,1,3,6.57,9.26,9.26,0,0,1-1.22,7.3c-1.3,1.92-2.68,3.81-4.08,5.68-1.53,2-3.85,2.94-6.65,3.07-1.87.08-3.59-1.37-3.48-2.94a13.93,13.93,0,0,1,1.87-6.4,13.17,13.17,0,0,0,1.32-2.76,3,3,0,0,0-2-3.61,4.59,4.59,0,0,0-2.69-.34c-2,.44-4.07.91-6.11,1.38a2.43,2.43,0,0,0-.71.27c-2.29,1.37-4.31,3-5.21,5.27a24.3,24.3,0,0,1-2.48,4.87,4.07,4.07,0,0,0,0,4.75A9.21,9.21,0,0,0,389.75,397.38Z" transform="translate(-17.47 -179.81)"/></svg>