<?xml version="1.0" encoding="UTF-8"?>
<svg xmlns="http://www.w3.org/2000/svg" xmlns:xlink="http://www.w3.org/1999/xlink" width="595.276pt" height="841.89pt" viewBox="0 0 595.276 841.89" version="1.1">
<g id="surface1">
<path style=" stroke:none;fill-rule:evenodd;fill:rgb(100%,0%,92.89856%);fill-opacity:1;" d="M 184.054688 367.84375 C 183.910156 367.050781 183.464844 366.355469 182.796875 365.792969 C 179.90625 363.367188 176.515625 361.589844 172.457031 360.75 C 171.375 360.527344 170.253906 360.550781 169.269531 360.972656 C 166.035156 362.351562 162.714844 363.601562 159.699219 365.300781 C 159.476562 365.425781 159.277344 365.582031 159.085938 365.738281 C 158.003906 366.621094 156.71875 367.21875 155.25 367.542969 C 153.160156 367.996094 152.144531 369.207031 151.699219 370.832031 C 151.582031 371.261719 151.449219 371.695312 151.375 372.128906 C 151.09375 373.828125 151.265625 375.445312 152.601562 376.867188 C 152.929688 377.21875 153.191406 377.613281 153.484375 377.984375 C 154.316406 379.035156 154.765625 380.1875 154.789062 381.429688 C 154.808594 382.425781 154.777344 383.417969 154.679688 384.410156 C 154.601562 385.179688 154.382812 385.9375 154.226562 386.703125 C 154.140625 387.140625 153.988281 387.574219 153.980469 388.011719 C 153.964844 388.5625 153.972656 389.132812 154.140625 389.660156 C 154.75 391.566406 156.296875 392.121094 158.0625 391.695312 C 161.308594 390.917969 164.625 390.261719 167.414062 388.554688 C 168.0625 388.160156 168.847656 387.921875 169.53125 387.566406 C 172.972656 385.78125 176.214844 383.773438 179.296875 381.597656 C 180.011719 381.09375 180.664062 380.519531 181.289062 379.933594 C 182.375 378.917969 183.140625 377.753906 183.382812 376.394531 M 213.417969 364.277344 C 213.449219 366.484375 212.738281 368.339844 211.433594 370.101562 C 209.535156 372.65625 207.671875 375.234375 205.957031 377.871094 C 202.527344 383.164062 197.8125 387.523438 191.945312 391.070312 C 186.699219 394.238281 181.230469 397.117188 175.253906 399.304688 C 172.769531 400.210938 170.371094 401.246094 168.15625 402.539062 C 166.925781 403.253906 165.539062 403.703125 164.175781 404.199219 C 163.5625 404.417969 162.941406 404.671875 162.429688 405.019531 C 161.425781 405.707031 160.957031 406.609375 161.277344 407.6875 C 161.792969 409.40625 162.324219 411.121094 162.871094 412.832031 C 163.496094 414.777344 163.625 416.765625 163.621094 418.761719 C 163.617188 420.871094 163.625 422.976562 163.621094 425.078125 C 163.617188 426.960938 163.601562 428.84375 164.0625 430.703125 C 164.523438 432.566406 163.832031 434.203125 162.417969 435.664062 C 162.167969 435.925781 161.921875 436.191406 161.652344 436.441406 C 160.378906 437.617188 159.425781 438.914062 158.976562 440.480469 C 158.335938 442.6875 156.429688 444.074219 154.070312 445.097656 C 153.152344 445.496094 152.253906 445.375 151.429688 444.816406 C 150.554688 444.226562 150 443.480469 149.800781 442.582031 C 149.660156 441.929688 149.609375 441.261719 149.566406 440.601562 C 149.34375 437.042969 148.445312 433.582031 147.507812 430.121094 C 147.1875 428.921875 146.691406 427.777344 146.023438 426.6875 C 144.453125 424.132812 144.09375 421.410156 144.261719 418.609375 C 144.3125 417.722656 144.453125 416.839844 144.429688 415.957031 C 144.40625 414.964844 144.289062 413.96875 144.128906 412.984375 C 143.980469 412.050781 143.320312 411.34375 142.308594 410.902344 C 141.71875 410.640625 141.050781 410.488281 140.457031 410.230469 C 139.984375 410.023438 139.539062 409.757812 139.140625 409.460938 C 138.28125 408.828125 138.125 407.832031 138.738281 407.046875 C 139.035156 406.675781 139.34375 406.3125 139.683594 405.96875 C 140.109375 405.535156 140.566406 405.128906 141.015625 404.710938 C 142.066406 403.726562 142.460938 402.59375 142.109375 401.3125 C 141.539062 399.265625 141.121094 397.175781 140.050781 395.246094 C 139.070312 393.480469 138.742188 391.664062 138.902344 389.742188 C 138.980469 388.871094 138.839844 387.972656 138.707031 387.09375 C 138.21875 383.804688 137.4375 380.535156 137.5 377.195312 C 137.519531 376.191406 137.261719 375.214844 136.820312 374.273438 C 135.632812 371.734375 135.988281 369.296875 137.414062 366.878906 C 138.058594 365.789062 138.585938 364.640625 139.03125 363.480469 C 139.574219 362.058594 140.503906 360.851562 141.835938 359.882812 C 143.355469 358.78125 144.902344 357.679688 146.582031 356.753906 C 149.300781 355.265625 151.867188 353.644531 154.078125 351.671875 C 156.507812 349.503906 159.410156 347.925781 162.734375 346.828125 C 164.621094 346.203125 166.453125 345.476562 168.304688 344.789062 C 170.664062 343.917969 173.125 343.28125 175.617188 342.75 C 177.347656 342.382812 179.113281 342.382812 180.851562 342.804688 C 181.113281 342.867188 181.359375 342.972656 181.628906 343.007812 C 185.78125 343.617188 189.257812 345.230469 192.164062 347.710938 C 193.582031 348.921875 195.292969 349.820312 197.09375 350.621094 C 199 351.46875 200.875 352.359375 202.753906 353.25 C 205.472656 354.542969 207.871094 356.160156 210.105469 357.957031 C 210.203125 358.039062 210.296875 358.117188 210.394531 358.191406 C 212.59375 359.890625 213.742188 361.929688 213.417969 364.277344 "/>
<path style=" stroke:none;fill-rule:evenodd;fill:rgb(100%,0%,92.89856%);fill-opacity:1;" d="M 269.789062 365.71875 C 269.777344 367.339844 269.066406 368.765625 267.773438 369.957031 C 266.878906 370.773438 265.808594 371.472656 264.789062 372.195312 C 263.976562 372.777344 263.082031 373.289062 262.285156 373.886719 C 260.941406 374.890625 259.984375 376.09375 259.964844 377.628906 C 259.9375 379.636719 258.871094 381.21875 257.226562 382.640625 C 255.644531 384.011719 254.101562 385.414062 252.636719 386.863281 C 251.523438 387.972656 250.460938 389.132812 249.546875 390.355469 C 247.210938 393.480469 246.515625 396.953125 246.683594 400.550781 C 246.742188 401.875 246.839844 403.21875 247.167969 404.507812 C 247.613281 406.261719 247.773438 408.011719 247.664062 409.785156 C 247.523438 412.035156 247.949219 414.191406 249.046875 416.261719 C 250.019531 418.101562 250.628906 420.027344 250.894531 422.015625 C 251.136719 423.792969 251.753906 425.476562 252.558594 427.128906 C 252.757812 427.535156 252.945312 427.953125 253.164062 428.355469 C 254.078125 430.050781 254.207031 431.757812 253.441406 433.519531 C 252.988281 434.5625 252.695312 435.644531 252.238281 436.683594 C 252.019531 437.195312 251.644531 437.671875 251.253906 438.117188 C 250.757812 438.683594 250.019531 438.996094 249.160156 438.980469 C 248.355469 438.964844 247.539062 438.886719 246.753906 438.75 C 245.960938 438.609375 245.214844 438.324219 244.421875 438.179688 C 243.476562 438.007812 242.523438 438.089844 241.632812 438.402344 C 240.890625 438.671875 240.195312 439.035156 239.445312 439.28125 C 236.246094 440.339844 233.003906 438.992188 232.207031 436.222656 C 231.652344 434.289062 231.199219 432.324219 230.824219 430.363281 C 230.683594 429.613281 230.722656 428.789062 230.960938 428.0625 C 231.574219 426.1875 231.308594 424.355469 231.074219 422.472656 C 230.476562 417.738281 229.503906 413.054688 228.433594 408.382812 C 228.238281 407.519531 228.253906 406.625 228.191406 405.738281 C 228.105469 404.414062 228.09375 403.085938 227.949219 401.761719 C 227.25 395.421875 229.613281 389.765625 233.777344 384.527344 C 234.585938 383.507812 235.539062 382.5625 236.476562 381.621094 C 238.710938 379.382812 240.667969 377 242.28125 374.425781 C 242.898438 373.445312 243.597656 372.496094 244.300781 371.550781 C 245.441406 370.015625 246.925781 368.738281 248.765625 367.746094 C 249.105469 367.558594 249.429688 367.359375 249.777344 367.191406 C 252.722656 365.742188 255.257812 363.957031 257.113281 361.554688 C 257.609375 360.910156 258.304688 360.347656 259 359.832031 C 259.910156 359.15625 260.972656 358.679688 262.195312 358.441406 C 265.183594 357.859375 267.757812 358.6875 268.8125 361.496094 C 269.324219 362.859375 269.867188 364.25 269.789062 365.71875 "/>
<path style=" stroke:none;fill-rule:evenodd;fill:rgb(100%,0%,92.89856%);fill-opacity:1;" d="M 110.714844 469.179688 C 110.757812 470.996094 109.808594 472.023438 108.285156 472.699219 C 107.589844 473.007812 106.761719 473.15625 105.972656 473.296875 C 105.3125 473.421875 104.628906 473.4375 103.953125 473.492188 C 101.957031 473.65625 100.320312 474.332031 99.183594 475.71875 C 99.03125 475.902344 98.878906 476.085938 98.722656 476.265625 C 97.933594 477.191406 96.972656 477.9375 95.632812 478.335938 C 93.230469 479.050781 91.539062 480.476562 90.179688 482.171875 C 89.21875 483.371094 88.320312 484.613281 87.519531 485.890625 C 86.03125 488.257812 84.351562 490.519531 82.394531 492.652344 C 79.796875 495.492188 77.246094 498.351562 74.6875 501.210938 C 72.820312 503.292969 70.519531 504.992188 67.867188 506.378906 C 65.585938 507.570312 63.304688 508.777344 60.9375 509.851562 C 58.433594 510.992188 56.148438 512.332031 54.046875 513.929688 C 52.667969 514.984375 51.171875 515.964844 49.570312 516.785156 C 44.480469 519.382812 40.082031 522.679688 35.566406 525.859375 C 34.34375 526.71875 33.320312 527.777344 32.238281 528.761719 C 30.433594 530.410156 28.703125 532.117188 26.847656 533.726562 C 25.070312 535.273438 23.445312 536.882812 22.5 538.886719 C 22.105469 539.71875 21.53125 540.460938 20.742188 541.097656 C 19.535156 542.070312 17.777344 542.386719 16.238281 541.8125 C 14.761719 541.257812 13.324219 540.636719 11.875 540.042969 C 11.515625 539.894531 11.15625 539.738281 10.820312 539.554688 C 10.601562 539.429688 10.402344 539.261719 10.253906 539.085938 C 9.859375 538.617188 9.535156 538.097656 9.886719 537.542969 C 11.710938 534.632812 13.933594 532.027344 17.847656 530.75 C 19.777344 530.121094 21.359375 529.097656 22.769531 527.875 C 24.714844 526.179688 26.679688 524.5 28.617188 522.792969 C 30.738281 520.921875 33.066406 519.234375 35.53125 517.667969 C 37.136719 516.648438 38.636719 515.523438 40.183594 514.449219 C 41.523438 513.515625 42.816406 512.535156 44.21875 511.671875 C 45.960938 510.59375 47.554688 509.40625 48.933594 508.027344 C 50.484375 506.46875 52.261719 505.125 54.152344 503.859375 C 55.511719 502.945312 56.777344 501.929688 57.976562 500.882812 C 61.964844 497.410156 65.917969 493.914062 70.082031 490.578125 C 74.335938 487.167969 78.421875 483.613281 82.609375 480.144531 C 84.636719 478.457031 86.246094 476.597656 87.042969 474.285156 C 87.753906 472.226562 89.070312 470.441406 91.023438 468.972656 C 92.894531 467.570312 94.96875 466.648438 97.601562 466.808594 C 99.25 466.90625 100.835938 466.691406 102.394531 466.242188 C 103.285156 465.984375 104.230469 465.824219 105.164062 465.707031 C 107.046875 465.480469 109.394531 466.488281 110.257812 467.902344 C 110.550781 468.382812 110.632812 468.949219 110.714844 469.179688 "/>
<path style=" stroke:none;fill-rule:evenodd;fill:rgb(100%,0%,92.89856%);fill-opacity:1;" d="M 354.445312 260.332031 C 354.679688 259.074219 354.9375 257.539062 355.246094 256.011719 C 355.640625 254.050781 356.085938 252.09375 356.484375 250.132812 C 356.703125 249.023438 356.621094 247.933594 356.167969 246.855469 C 355.34375 244.890625 355.621094 242.988281 356.40625 241.019531 C 358.882812 234.8125 360.980469 228.519531 362.824219 222.167969 C 363.011719 221.523438 363.136719 220.863281 363.300781 220.214844 C 363.828125 218.160156 364.503906 216.140625 365.320312 214.140625 C 366.855469 210.367188 368.421875 206.589844 369 202.609375 C 369.183594 201.347656 369.894531 200.296875 370.957031 199.402344 C 371.902344 198.609375 372.929688 197.875 373.828125 197.050781 C 374.546875 196.394531 375.105469 195.621094 375.777344 194.929688 C 376.28125 194.414062 376.839844 193.929688 377.417969 193.464844 C 377.816406 193.140625 378.371094 192.988281 378.898438 193.191406 C 379.546875 193.433594 379.972656 193.878906 379.996094 194.480469 C 380.007812 194.800781 379.855469 195.128906 379.808594 195.457031 C 379.597656 196.925781 380.691406 198.066406 382.488281 198.179688 C 383.566406 198.246094 384.65625 198.1875 385.738281 198.222656 C 387.179688 198.269531 388.253906 199.027344 388.660156 200.179688 C 389.101562 201.429688 388.832031 202.605469 388.113281 203.710938 C 387.671875 204.390625 387.070312 205 386.535156 205.640625 C 383.136719 209.691406 380.523438 214.019531 379.386719 218.894531 C 379.007812 220.519531 378.265625 222.082031 377.75 223.683594 C 376.992188 226.039062 376.117188 228.355469 375.054688 230.636719 C 374.289062 232.285156 373.746094 234.007812 373.179688 235.714844 C 372.472656 237.847656 371.9375 240.019531 371.167969 242.136719 C 370.082031 245.128906 369.429688 248.160156 369.132812 251.257812 C 369.085938 251.699219 369.054688 252.144531 368.957031 252.578125 C 368.632812 253.980469 367.640625 255 366.058594 255.574219 C 365.328125 255.84375 364.503906 255.9375 363.722656 256.121094 C 361.757812 256.578125 360.839844 257.554688 360.78125 259.257812 C 360.746094 260.253906 360.773438 261.25 360.695312 262.238281 C 360.632812 263.050781 360.089844 263.691406 359.394531 264.246094 C 358.601562 264.878906 357.300781 264.945312 356.410156 264.417969 C 355.367188 263.796875 354.75 262.96875 354.558594 261.941406 C 354.476562 261.5 354.492188 261.058594 354.445312 260.332031 "/>
<path style=" stroke:none;fill-rule:evenodd;fill:rgb(100%,0%,92.89856%);fill-opacity:1;" d="M 181.21875 202.179688 C 181.570312 202.25 182.304688 202.265625 182.859375 202.53125 C 184.96875 203.535156 187.164062 204.46875 189.054688 205.703125 C 193.820312 208.824219 198.347656 212.164062 202.160156 216.09375 C 203.683594 217.667969 205.046875 219.304688 206.050781 221.132812 C 206.660156 222.242188 207.300781 223.34375 208.003906 224.417969 C 210.519531 228.261719 212.152344 232.351562 212.933594 236.648438 C 213.316406 238.757812 214.085938 240.734375 215.15625 242.65625 C 215.828125 243.867188 216.519531 245.066406 217.207031 246.269531 C 217.902344 247.488281 218.371094 248.761719 218.226562 250.121094 C 217.960938 252.632812 218.660156 254.929688 220.253906 257.09375 C 221.164062 258.335938 221.550781 259.761719 221.953125 261.164062 C 222.171875 261.949219 222.054688 262.734375 221.519531 263.402344 C 221.011719 264.046875 220.457031 264.695312 219.773438 265.210938 C 217.371094 267.027344 214.835938 267.03125 212.625 265.070312 C 210.984375 263.613281 209.5625 261.976562 208.175781 260.34375 C 207.65625 259.738281 207.421875 258.925781 207.207031 258.183594 C 206.492188 255.699219 205.464844 253.296875 204.230469 250.960938 C 203.429688 249.441406 202.371094 248.007812 201.640625 246.464844 C 200.910156 244.929688 200.492188 243.292969 199.84375 241.722656 C 199.414062 240.679688 198.886719 239.648438 198.296875 238.65625 C 195.679688 234.285156 193.523438 229.742188 190.796875 225.40625 C 189.191406 222.851562 187.8125 220.199219 186.28125 217.613281 C 185.636719 216.515625 184.859375 215.476562 184.136719 214.410156 C 183.144531 212.941406 181.898438 211.640625 180.242188 210.628906 C 179.8125 210.363281 179.40625 210.058594 179.027344 209.746094 C 176.902344 207.980469 176.796875 205.011719 178.792969 203.089844 C 179.335938 202.5625 180.035156 202.238281 181.21875 202.179688 "/>
<path style=" stroke:none;fill-rule:evenodd;fill:rgb(100%,0%,92.89856%);fill-opacity:1;" d="M 382.703125 485.726562 C 383.058594 485.796875 383.789062 485.8125 384.34375 486.078125 C 386.449219 487.085938 388.648438 488.015625 390.535156 489.25 C 395.304688 492.371094 399.832031 495.710938 403.644531 499.644531 C 405.171875 501.214844 406.53125 502.851562 407.535156 504.683594 C 408.148438 505.792969 408.785156 506.894531 409.488281 507.96875 C 412.003906 511.816406 413.636719 515.902344 414.417969 520.199219 C 414.796875 522.304688 415.570312 524.28125 416.636719 526.203125 C 417.316406 527.410156 418.003906 528.613281 418.691406 529.820312 C 419.390625 531.039062 419.855469 532.3125 419.710938 533.667969 C 419.445312 536.183594 420.144531 538.480469 421.738281 540.640625 C 422.648438 541.886719 423.035156 543.3125 423.4375 544.710938 C 423.65625 545.496094 423.535156 546.277344 423.003906 546.953125 C 422.496094 547.59375 421.9375 548.246094 421.257812 548.761719 C 418.855469 550.574219 416.324219 550.578125 414.109375 548.621094 C 412.464844 547.160156 411.046875 545.523438 409.65625 543.894531 C 409.136719 543.285156 408.90625 542.476562 408.695312 541.734375 C 407.972656 539.246094 406.953125 536.847656 405.714844 534.507812 C 404.917969 532.988281 403.855469 531.554688 403.125 530.015625 C 402.394531 528.476562 401.976562 526.839844 401.328125 525.273438 C 400.898438 524.230469 400.371094 523.199219 399.78125 522.207031 C 397.167969 517.832031 395.007812 513.292969 392.28125 508.957031 C 390.675781 506.398438 389.300781 503.75 387.765625 501.160156 C 387.121094 500.070312 386.34375 499.023438 385.621094 497.960938 C 384.625 496.488281 383.386719 495.191406 381.726562 494.171875 C 381.296875 493.910156 380.890625 493.609375 380.511719 493.292969 C 378.390625 491.527344 378.28125 488.5625 380.277344 486.636719 C 380.820312 486.113281 381.519531 485.789062 382.703125 485.726562 "/>
<path style=" stroke:none;fill-rule:evenodd;fill:rgb(100%,0%,92.89856%);fill-opacity:1;" d="M 509.832031 514.019531 C 509.03125 514.070312 508.222656 514.132812 507.410156 514.175781 C 504.855469 514.3125 502.976562 513.375 501.605469 511.6875 C 501.160156 511.132812 500.773438 510.542969 500.457031 509.9375 C 499.085938 507.347656 497.140625 505.128906 494.328125 503.453125 C 492.515625 502.375 491.277344 500.957031 490.597656 499.210938 C 489.925781 497.5 488.742188 496.027344 487.363281 494.644531 C 485.226562 492.503906 483.132812 490.328125 480.929688 488.230469 C 479.136719 486.535156 477.722656 484.683594 476.777344 482.578125 C 476.3125 481.542969 475.765625 480.527344 475.152344 479.546875 C 474.859375 479.070312 474.359375 478.660156 473.882812 478.277344 C 473.351562 477.847656 472.21875 477.730469 471.597656 478.035156 C 470.902344 478.371094 470.242188 478.753906 469.570312 479.121094 C 469.117188 479.363281 468.6875 479.640625 468.214844 479.855469 C 467.453125 480.191406 466.632812 480.246094 465.898438 479.863281 C 465.058594 479.425781 464.5 478.769531 464.5625 477.929688 C 464.609375 477.273438 464.855469 476.632812 464.984375 475.980469 C 465.328125 474.21875 465.441406 472.46875 464.597656 470.757812 C 464.347656 470.25 464.222656 469.691406 464.128906 469.148438 C 463.910156 467.894531 464.128906 466.722656 465.167969 465.71875 C 465.429688 465.464844 465.675781 465.199219 465.945312 464.953125 C 467.09375 463.886719 467.742188 462.746094 466.945312 461.316406 C 466.78125 461.027344 466.757812 460.671875 466.722656 460.34375 C 466.636719 459.53125 466.933594 458.832031 467.640625 458.230469 C 468.78125 457.257812 470.28125 456.980469 471.703125 457.566406 C 472.304688 457.816406 472.914062 458.105469 473.375 458.488281 C 474.796875 459.667969 476.21875 460.859375 477.5 462.140625 C 478.609375 463.25 479.582031 464.460938 480.527344 465.671875 C 482.417969 468.089844 484.394531 470.472656 486.234375 472.917969 C 489.492188 477.238281 492.804688 481.566406 495.132812 486.304688 C 495.996094 488.078125 497.253906 489.613281 498.722656 491.078125 C 500.613281 492.960938 502.441406 494.882812 504.195312 496.84375 C 506.835938 499.796875 509.667969 502.613281 512.558594 505.398438 C 513.691406 506.492188 514.714844 507.664062 515.730469 508.832031 C 516.375 509.570312 516.632812 510.429688 516.691406 511.332031 C 516.765625 512.53125 515.695312 514.167969 513.496094 514.175781 C 512.277344 514.179688 511.0625 514.078125 509.832031 514.019531 "/>
<path style=" stroke:none;fill-rule:evenodd;fill:rgb(100%,0%,92.89856%);fill-opacity:1;" d="M 573.753906 276.542969 C 575.605469 276.59375 576.773438 277.425781 577.027344 278.589844 C 577.167969 279.234375 577.230469 279.894531 577.394531 280.535156 C 577.5 280.945312 578.527344 281.460938 579.015625 281.378906 C 579.808594 281.238281 580.582031 281.027344 581.378906 280.898438 C 583.160156 280.609375 585.226562 281.859375 585.519531 283.402344 C 585.578125 283.71875 585.5 284.066406 585.394531 284.375 C 585.089844 285.25 584.4375 285.957031 583.621094 286.5625 C 582.410156 287.464844 581.042969 288.167969 579.550781 288.730469 C 573.152344 291.15625 566.957031 293.902344 560.816406 296.726562 C 560.222656 296.996094 559.621094 297.261719 559.074219 297.585938 C 556.863281 298.886719 554.511719 299.957031 551.988281 300.8125 C 550.105469 301.453125 548.371094 302.347656 546.796875 303.410156 C 544.359375 305.058594 541.660156 306.222656 538.589844 306.929688 C 536.382812 307.4375 534.296875 308.285156 532.144531 308.960938 C 529.992188 309.632812 527.851562 310.335938 525.664062 310.921875 C 522.75 311.699219 520.414062 310.757812 519.640625 308.425781 C 519.101562 306.804688 518.40625 305.277344 517.210938 303.90625 C 516.980469 303.636719 516.828125 303.316406 516.703125 303.003906 C 516.480469 302.457031 516.511719 301.867188 516.902344 301.40625 C 517.4375 300.777344 518.042969 300.164062 518.738281 299.65625 C 520.1875 298.597656 521.960938 297.988281 523.824219 297.664062 C 526.648438 297.167969 529.214844 296.195312 531.777344 295.175781 C 534.335938 294.160156 536.886719 293.132812 539.484375 292.171875 C 542.585938 291.027344 545.507812 289.628906 548.34375 288.109375 C 550.5 286.957031 552.722656 285.894531 555.054688 284.988281 C 557.144531 284.183594 559.113281 283.210938 561.046875 282.183594 C 563.886719 280.671875 566.777344 279.230469 569.660156 277.769531 C 570.234375 277.472656 570.8125 277.148438 571.445312 276.980469 C 572.332031 276.738281 573.277344 276.628906 573.753906 276.542969 "/>
<path style=" stroke:none;fill-rule:evenodd;fill:rgb(100%,0%,92.89856%);fill-opacity:1;" d="M 566.929688 422.960938 C 565.617188 423.003906 564.4375 422.746094 563.308594 422.351562 C 562.3125 422.003906 561.351562 421.601562 560.359375 421.242188 C 559.621094 420.972656 558.234375 421.601562 558.15625 422.273438 C 558.066406 423.039062 558.109375 423.816406 558.023438 424.585938 C 557.863281 426.015625 556.960938 427.058594 555.390625 427.710938 C 554.648438 428.019531 553.84375 428.160156 553.027344 427.960938 C 552.117188 427.742188 551.207031 427.511719 550.335938 427.210938 C 548.332031 426.523438 546.296875 425.921875 544.152344 425.597656 C 541.554688 425.203125 539.285156 424.265625 537.28125 422.871094 C 534.898438 421.207031 532.222656 419.898438 529.503906 418.644531 C 527.839844 417.878906 526.089844 417.292969 524.207031 416.992188 C 520.980469 416.484375 517.996094 415.535156 515.199219 414.082031 C 512.300781 412.582031 509.0625 411.765625 505.59375 411.667969 C 504.359375 411.636719 503.171875 411.519531 502.09375 410.949219 C 500.328125 410.019531 499.605469 408.675781 499.898438 406.984375 C 500.269531 404.839844 501.660156 403.289062 504.003906 402.347656 C 505.832031 401.617188 507.640625 400.871094 509.296875 399.894531 C 511.117188 398.8125 513.03125 398.828125 515.066406 399.566406 C 517.542969 400.464844 520.074219 401.257812 522.574219 402.109375 C 529.960938 404.613281 537.347656 407.109375 544.71875 409.640625 C 547.464844 410.582031 550.175781 411.59375 553.027344 412.328125 C 554.050781 412.59375 555.003906 413.042969 555.976562 413.4375 C 558.640625 414.527344 561.28125 415.65625 563.96875 416.71875 C 565.191406 417.203125 566.402344 417.707031 567.394531 418.472656 C 567.984375 418.921875 568.523438 419.433594 568.992188 419.96875 C 569.492188 420.535156 569.640625 421.207031 569.195312 421.839844 C 568.78125 422.433594 568.152344 422.855469 567.265625 422.941406 C 567.136719 422.949219 567 422.957031 566.929688 422.960938 "/>
<path style=" stroke:none;fill-rule:evenodd;fill:rgb(100%,0%,92.89856%);fill-opacity:1;" d="M 285.050781 467.226562 C 284.960938 467.585938 284.9375 467.933594 284.78125 468.226562 C 284.460938 468.839844 284.050781 469.417969 283.707031 470.015625 C 283.074219 471.128906 282.632812 472.285156 282.519531 473.519531 C 282.363281 475.175781 282.152344 476.824219 282.046875 478.484375 C 281.945312 480.035156 281.75 481.566406 281.316406 483.085938 C 280.941406 484.375 280.59375 485.679688 280.414062 486.996094 C 280.210938 488.546875 279.898438 490.054688 279.25 491.523438 C 278.972656 492.148438 278.746094 492.804688 278.6875 493.460938 C 278.445312 496.332031 277.742188 499.164062 277.789062 502.058594 C 277.8125 503.488281 278.128906 514.640625 278.960938 516.820312 C 279.972656 519.476562 279.9375 522.285156 279.617188 525.050781 C 279.277344 528.023438 278.789062 530.984375 278.386719 533.957031 C 278.242188 534.984375 277.746094 535.878906 276.914062 536.640625 C 275.554688 537.882812 273.980469 538.9375 272.253906 539.824219 C 271.550781 540.183594 270.722656 540.296875 269.949219 539.863281 C 269.089844 539.382812 268.65625 538.710938 268.855469 537.871094 C 269.1875 536.464844 269.636719 535.070312 269.980469 533.660156 C 270.214844 532.683594 270.40625 531.695312 270.511719 530.707031 C 270.613281 529.757812 269.207031 515.992188 269.851562 503.867188 C 270.460938 492.402344 275.972656 476.308594 276.074219 474.777344 C 276.199219 472.898438 276.433594 471.027344 276.597656 469.148438 C 276.734375 467.636719 277.480469 466.398438 278.878906 465.386719 C 280.742188 464.054688 283.628906 464.480469 284.75 466.300781 C 284.925781 466.585938 284.960938 466.929688 285.050781 467.226562 "/>
<path style=" stroke:none;fill-rule:evenodd;fill:rgb(100%,0%,92.89856%);fill-opacity:1;" d="M 389.351562 344.171875 C 389.351562 345.167969 389.363281 346.164062 389.347656 347.160156 C 389.308594 349.039062 389.253906 350.914062 388.746094 352.769531 C 388.296875 354.390625 388.058594 356.042969 387.765625 357.6875 C 387.59375 358.6875 387.199219 359.625 386.660156 360.519531 C 385.933594 361.726562 384.578125 362.238281 382.957031 361.964844 C 382.421875 361.871094 381.882812 361.792969 381.375 361.648438 C 380.152344 361.300781 378.964844 361.515625 377.761719 361.699219 C 375.285156 362.074219 373.703125 360.792969 373.105469 359.257812 C 372.695312 358.207031 372.464844 357.109375 372.207031 356.023438 C 372.082031 355.484375 372.078125 354.921875 372 354.375 C 371.59375 351.398438 370.957031 348.464844 369.703125 345.632812 C 369.242188 344.601562 369.03125 343.492188 368.65625 342.433594 C 368.101562 340.859375 368.257812 339.3125 369.214844 337.917969 C 370.375 336.230469 370.917969 334.449219 371.105469 332.550781 C 371.203125 331.546875 371.601562 330.609375 372.214844 329.726562 C 373.078125 328.472656 373.878906 327.1875 374.757812 325.941406 C 375.527344 324.859375 376.632812 324.042969 378.046875 323.550781 C 379.09375 323.179688 380.152344 323.214844 381.175781 323.6875 C 382.402344 324.257812 383.285156 325.078125 383.839844 326.121094 C 384.601562 327.539062 385.394531 328.949219 386.023438 330.410156 C 386.792969 332.183594 387.488281 333.976562 388.570312 335.644531 C 389.230469 336.65625 389.394531 337.738281 389.347656 338.859375 C 389.273438 340.628906 389.234375 342.402344 389.179688 344.171875 Z M 389.351562 344.171875 "/>
<path style=" stroke:none;fill-rule:evenodd;fill:rgb(100%,0%,92.89856%);fill-opacity:1;" d="M 63.101562 281.445312 C 63.105469 280.722656 63.328125 279.972656 63.976562 279.359375 C 64.511719 278.859375 65.054688 278.359375 65.660156 277.917969 C 67.105469 276.871094 67.59375 275.570312 67.335938 274.035156 C 67.132812 272.832031 66.925781 271.625 66.808594 270.414062 C 66.679688 269.117188 67.273438 268.03125 68.476562 267.171875 C 69.671875 266.324219 71.480469 266.371094 72.492188 267.34375 C 73.007812 267.84375 73.46875 268.414062 73.796875 269.003906 C 74.632812 270.539062 75.003906 272.191406 75.085938 273.851562 C 75.21875 276.554688 76.121094 279.074219 77.390625 281.542969 C 78.078125 282.867188 78.699219 284.214844 79.378906 285.539062 C 80.546875 287.824219 82.15625 289.84375 84.640625 291.339844 C 86.070312 292.199219 87.277344 293.253906 88.378906 294.382812 C 90.664062 296.738281 93.210938 298.84375 96.214844 300.625 C 99.070312 302.316406 101.667969 304.265625 103.835938 306.578125 C 104.660156 307.449219 105.707031 308.179688 106.628906 308.996094 C 107.089844 309.394531 107.582031 309.792969 107.929688 310.257812 C 108.59375 311.144531 108.78125 312.085938 108.308594 313.113281 C 107.808594 314.195312 107.042969 315.066406 105.8125 315.644531 C 104.925781 316.0625 103.949219 316.105469 103.097656 315.671875 C 102.304688 315.273438 101.574219 314.75 100.9375 314.191406 C 100.203125 313.542969 99.628906 312.777344 98.9375 312.09375 C 97.613281 310.800781 96.066406 309.75 94.054688 309.222656 C 90.125 308.179688 87.265625 306.03125 85.050781 303.28125 C 83.628906 301.515625 82 299.894531 80.238281 298.351562 C 78.570312 296.886719 77.175781 295.269531 75.859375 293.578125 C 73.371094 290.386719 70.46875 287.476562 66.515625 285.367188 C 65.621094 284.886719 64.839844 284.253906 64.0625 283.644531 C 63.34375 283.078125 63.117188 282.320312 63.101562 281.445312 "/>
<path style=" stroke:none;fill-rule:evenodd;fill:rgb(100%,0%,92.89856%);fill-opacity:1;" d="M 38.136719 388.269531 C 39.804688 388.433594 41.261719 388.253906 42.699219 387.84375 C 43.589844 387.585938 44.511719 387.367188 45.441406 387.21875 C 47.46875 386.882812 49.476562 386.828125 51.417969 387.59375 C 53.675781 388.484375 56.074219 388.742188 58.5625 388.546875 C 59.507812 388.476562 60.464844 388.476562 61.414062 388.476562 C 62.84375 388.472656 64.058594 388.945312 65.085938 389.722656 C 66.773438 390.996094 67.679688 392.539062 67.398438 394.460938 C 67.207031 395.777344 67.023438 397.101562 66.824219 398.414062 C 66.789062 398.632812 66.679688 398.839844 66.597656 399.050781 C 66.222656 400.03125 64.769531 400.585938 63.628906 400.160156 C 63.015625 399.929688 62.410156 399.679688 61.832031 399.386719 C 58.328125 397.617188 54.429688 397.371094 50.457031 397.398438 C 49.78125 397.402344 49.105469 397.523438 48.429688 397.527344 C 46.613281 397.542969 44.949219 397.917969 43.46875 398.804688 C 42.34375 399.476562 41.066406 399.78125 39.679688 399.886719 C 38.042969 400.007812 36.523438 400.476562 35.027344 401.027344 C 33.296875 401.667969 31.507812 402.195312 29.726562 402.730469 C 28.351562 403.140625 27.046875 402.886719 25.832031 402.285156 C 24.765625 401.753906 23.945312 401.035156 23.320312 400.152344 C 21.875 398.105469 22.304688 395.964844 24.507812 394.492188 C 25.027344 394.140625 25.601562 393.824219 26.199219 393.574219 C 27.925781 392.863281 29.367188 391.871094 30.667969 390.726562 C 31.035156 390.398438 31.441406 390.101562 31.84375 389.804688 C 33.210938 388.800781 34.824219 388.292969 36.660156 388.269531 C 37.203125 388.261719 37.746094 388.269531 38.136719 388.269531 "/>
<path style=" stroke:none;fill-rule:evenodd;fill:rgb(100%,0%,92.89856%);fill-opacity:1;" d="M 302.21875 390.660156 C 302.238281 390.621094 302.269531 390.574219 302.296875 390.527344 C 302.398438 390.347656 302.53125 390.125 302.738281 389.902344 C 305.378906 387.035156 307.574219 384.953125 309.859375 383.15625 C 311.039062 382.226562 312.351562 381.425781 313.761719 380.777344 C 315.160156 380.136719 316.648438 379.820312 318.3125 379.820312 L 318.390625 379.820312 C 318.449219 379.820312 318.511719 379.820312 318.570312 379.820312 C 320.738281 379.820312 322.816406 380.460938 324.925781 381.773438 C 325.25 381.980469 325.484375 382.210938 325.671875 382.394531 L 325.722656 382.449219 C 326.351562 383.070312 326.589844 383.972656 326.359375 384.847656 C 326.128906 385.734375 325.453125 386.480469 324.5625 386.84375 C 324.050781 387.050781 323.433594 387.285156 322.761719 387.429688 C 322.335938 387.519531 321.925781 387.566406 321.53125 387.613281 C 321.238281 387.648438 320.957031 387.679688 320.703125 387.730469 C 318.324219 388.179688 316.304688 388.765625 314.546875 389.515625 L 312.832031 390.542969 L 310.632812 391.761719 C 309.769531 392.363281 308.875 392.929688 308.089844 393.421875 C 307.484375 393.800781 306.917969 394.074219 306.355469 394.261719 C 305.875 394.421875 305.398438 394.503906 304.9375 394.503906 C 304.226562 394.503906 303.554688 394.3125 302.992188 393.945312 C 301.886719 393.226562 301.535156 391.75 302.21875 390.660156 M 349.644531 412.136719 C 348.175781 410.671875 346.464844 409.410156 344.445312 408.464844 C 343.601562 408.070312 342.644531 408.003906 341.6875 408.292969 C 340.671875 408.601562 339.648438 408.898438 338.625 409.195312 C 329.59375 411.777344 320.304688 413.242188 310.734375 413.546875 C 309.078125 413.601562 307.496094 413.457031 305.914062 413.082031 C 303.367188 412.484375 301.847656 410.769531 302.097656 408.601562 C 302.148438 408.191406 302.398438 407.742188 302.71875 407.414062 C 303.136719 406.988281 303.667969 406.617188 304.222656 406.316406 C 306.152344 405.28125 308.167969 404.367188 310.300781 403.625 C 314.050781 402.316406 317.90625 401.265625 321.835938 400.375 C 325.628906 399.519531 329.480469 398.875 333.339844 398.238281 C 337.285156 397.589844 340.3125 395.859375 341.542969 392.496094 C 341.910156 391.5 341.953125 390.566406 341.503906 389.582031 C 340.355469 387.09375 339.285156 384.585938 338.125 382.109375 C 337.695312 381.179688 337.226562 380.234375 336.558594 379.414062 C 334.527344 376.921875 332.234375 374.589844 329.59375 372.5 C 327.222656 370.613281 324.324219 369.8125 321.054688 369.949219 C 318.472656 370.0625 315.863281 370.277344 313.5 371.179688 C 309.703125 372.628906 305.78125 373.847656 302.324219 375.894531 C 299.34375 377.65625 296.625 379.648438 293.917969 381.65625 C 293.019531 382.324219 292.226562 383.101562 291.46875 383.878906 C 286.011719 389.464844 283.535156 395.894531 283.394531 402.972656 C 283.285156 404.992188 283.679688 406.96875 284.203125 408.914062 C 286.453125 417.226562 291.90625 423.6875 300.96875 428.058594 C 303.164062 429.117188 305.488281 429.546875 307.992188 429.304688 C 309.609375 429.144531 311.222656 428.9375 312.816406 428.65625 C 316.929688 427.929688 321.003906 427.058594 325.132812 426.414062 C 329.628906 425.714844 333.65625 424.183594 337.390625 422.117188 C 339.757812 420.808594 342.097656 419.5625 344.871094 418.832031 C 347.65625 418.101562 349.179688 416.230469 350.058594 414.03125 C 350.320312 413.386719 350.195312 412.683594 349.644531 412.136719 "/>
<path style=" stroke:none;fill-rule:evenodd;fill:rgb(100%,0%,92.89856%);fill-opacity:1;" d="M 393.085938 410.667969 C 394.246094 411.808594 395.226562 413.023438 396.125 414.292969 C 401.390625 419.089844 407.484375 422.046875 414.019531 422.566406 C 430.582031 421.519531 443.613281 410.566406 443.613281 397.195312 C 443.613281 393.785156 442.761719 390.53125 441.222656 387.558594 C 441.089844 387.433594 440.960938 387.300781 440.816406 387.175781 C 439.800781 386.273438 438.925781 385.285156 438.355469 384.152344 C 437.632812 382.71875 437.011719 381.257812 436.332031 379.816406 C 435.699219 378.476562 435.066406 377.136719 434.390625 375.8125 C 433.1875 373.445312 431.402344 371.359375 429.746094 369.203125 C 428.4375 367.5 427.097656 365.867188 425.128906 364.621094 C 424.808594 364.421875 424.523438 364.175781 424.277344 363.914062 C 423.582031 363.171875 423.324219 362.320312 423.578125 361.410156 C 423.949219 360.082031 424.785156 358.953125 426.023438 358.035156 C 426.773438 357.480469 428.210938 357.421875 429.054688 357.953125 C 429.699219 358.351562 430.28125 358.816406 430.875 359.269531 C 431.664062 359.875 432.367188 360.566406 433.230469 361.09375 C 436.148438 362.871094 437.410156 362.589844 439.523438 360.714844 C 442.335938 358.210938 444.078125 355.242188 445.203125 352.007812 C 445.886719 350.042969 444.90625 348.859375 442.25 348.636719 C 440.675781 348.507812 439.363281 348.101562 438.308594 347.148438 C 436.617188 345.632812 434.371094 344.824219 432.191406 343.929688 C 430.394531 343.1875 428.527344 343.167969 426.675781 343.769531 C 423.214844 344.894531 420.179688 346.542969 417.863281 348.941406 C 415.9375 350.9375 414.128906 353.015625 412.308594 355.085938 C 411.679688 355.800781 411.109375 356.566406 410.640625 357.359375 C 409.570312 359.144531 408.476562 360.9375 407.578125 362.785156 C 406.882812 364.214844 406.34375 365.71875 405.960938 367.226562 C 405.40625 369.386719 405.945312 371.417969 407.746094 373.125 C 408.804688 374.128906 409.945312 375.078125 411.117188 375.992188 C 411.902344 376.601562 412.792969 377.117188 413.660156 377.648438 C 415.640625 378.867188 417.222656 380.34375 418.367188 382.152344 C 419.171875 383.433594 420.046875 384.683594 421.003906 385.886719 C 422.578125 387.878906 423.371094 390.097656 424.109375 392.453125 C 424.605469 394.925781 424.484375 397.441406 422.859375 399.761719 C 421.511719 401.679688 420.089844 403.566406 418.652344 405.441406 C 417.078125 407.480469 414.683594 408.382812 411.808594 408.503906 C 409.878906 408.585938 408.109375 407.136719 408.222656 405.5625 C 408.382812 403.339844 408.890625 401.179688 410.152344 399.167969 C 410.707031 398.289062 411.191406 397.359375 411.507812 396.40625 C 411.996094 394.953125 411.066406 393.433594 409.441406 392.792969 C 408.570312 392.453125 407.628906 392.265625 406.675781 392.460938 C 404.574219 392.894531 402.484375 393.367188 400.390625 393.832031 C 400.132812 393.890625 399.871094 393.988281 399.65625 394.109375 C 397.300781 395.480469 395.21875 397.09375 394.289062 399.378906 C 393.601562 401.070312 392.824219 402.699219 391.742188 404.242188 C 390.640625 405.816406 390.765625 407.429688 391.773438 409 C 392.148438 409.585938 392.574219 410.160156 393.085938 410.667969 "/>
</g>
</svg>
