<?xml version="1.0" encoding="utf-8" standalone="yes"?> <svg width="1000" height="1000" viewBox="0 0 25 25" xmlns="http://www.w3.org/2000/svg" shape-rendering="geometricPrecision" id="qr code"><rect id="qr background" fill-opacity="1" fill="rgb(255, 255, 255)" x="0" y="0" width="25" height="25" ry="1.3499999999999999"></rect><path fill-opacity="1" fill="rgb(25, 26, 26)" id="qr dark pixels" fill-rule="evenodd" d="M 8 0.4a 0.4,0.4 0 0 1 0.4,-0.4L 8.6 0a 0.4,0.4 0 0 1 0.4,0.4L 9 0.6a 0.4,0.4 0 0 1 -0.4,0.4L 8.4 1a 0.4,0.4 0 0 1 -0.4,-0.4z M 11 0.4a 0.4,0.4 0 0 1 0.4,-0.4L 13.6 0a 0.4,0.4 0 0 1 0.4,0.4L 14 0.6a 0.4,0.4 0 0 0 0.4,0.4L 14.6 1a 0.4,0.4 0 0 1 0.4,0.4L 15 1.6a 0.4,0.4 0 0 1 -0.4,0.4L 14.4 2a 0.4,0.4 0 0 0 -0.4,0.4L 14 2.6a 0.4,0.4 0 0 0 0.4,0.4L 14.6 3a 0.4,0.4 0 0 1 0.4,0.4L 15 6.6a 0.4,0.4 0 0 1 -0.4,0.4L 14.4 7a 0.4,0.4 0 0 1 -0.4,-0.4L 14 6.4a 0.4,0.4 0 0 0 -0.4,-0.4L 13.4 6a 0.4,0.4 0 0 0 -0.4,0.4L 13 6.6a 0.4,0.4 0 0 1 -0.4,0.4L 12.4 7a 0.4,0.4 0 0 1 -0.4,-0.4L 12 5.4a 0.4,0.4 0 0 1 0.4,-0.4L 12.6 5a 0.4,0.4 0 0 0 0.4,-0.4L 13 4.4a 0.4,0.4 0 0 0 -0.4,-0.4L 12.4 4a 0.4,0.4 0 0 1 -0.4,-0.4L 12 2.4a 0.4,0.4 0 0 1 0.4,-0.4L 12.6 2a 0.4,0.4 0 0 0 0.4,-0.4L 13 1.4a 0.4,0.4 0 0 0 -0.4,-0.4L 11.4 1a 0.4,0.4 0 0 1 -0.4,-0.4z M 9 1.4a 0.4,0.4 0 0 1 0.4,-0.4L 10.6 1a 0.4,0.4 0 0 1 0.4,0.4L 11 2.6a 0.4,0.4 0 0 1 -0.4,0.4L 10.4 3a 0.4,0.4 0 0 1 -0.4,-0.4L 10 2.4a 0.4,0.4 0 0 0 -0.4,-0.4L 9.4 2a 0.4,0.4 0 0 1 -0.4,-0.4z M 15 2.4a 0.4,0.4 0 0 1 0.4,-0.4L 16.6 2a 0.4,0.4 0 0 1 0.4,0.4L 17 2.6a 0.4,0.4 0 0 1 -0.4,0.4L 15.4 3a 0.4,0.4 0 0 1 -0.4,-0.4z M 9 4.4a 0.4,0.4 0 0 1 0.4,-0.4L 9.6 4a 0.4,0.4 0 0 1 0.4,0.4L 10 4.6a 0.4,0.4 0 0 1 -0.4,0.4L 9.4 5a 0.4,0.4 0 0 1 -0.4,-0.4z M 11 4.4a 0.4,0.4 0 0 1 0.4,-0.4L 11.6 4a 0.4,0.4 0 0 1 0.4,0.4L 12 4.6a 0.4,0.4 0 0 1 -0.4,0.4L 11.4 5a 0.4,0.4 0 0 1 -0.4,-0.4z M 16 4.4a 0.4,0.4 0 0 1 0.4,-0.4L 16.6 4a 0.4,0.4 0 0 1 0.4,0.4L 17 4.6a 0.4,0.4 0 0 1 -0.4,0.4L 16.4 5a 0.4,0.4 0 0 1 -0.4,-0.4z M 10 5.4a 0.4,0.4 0 0 1 0.4,-0.4L 10.6 5a 0.4,0.4 0 0 1 0.4,0.4L 11 6.6a 0.4,0.4 0 0 0 0.4,0.4L 11.6 7a 0.4,0.4 0 0 1 0.4,0.4L 12 8.6a 0.4,0.4 0 0 1 -0.4,0.4L 10.4 9a 0.4,0.4 0 0 0 -0.4,0.4L 10 9.6a 0.4,0.4 0 0 1 -0.4,0.4L 9.4 10a 0.4,0.4 0 0 1 -0.4,-0.4L 9 8.4a 0.4,0.4 0 0 1 0.4,-0.4L 9.6 8a 0.4,0.4 0 0 0 0.4,-0.4z M 8 6.4a 0.4,0.4 0 0 1 0.4,-0.4L 8.6 6a 0.4,0.4 0 0 1 0.4,0.4L 9 7.6a 0.4,0.4 0 0 1 -0.4,0.4L 8.4 8a 0.4,0.4 0 0 1 -0.4,-0.4z M 16 6.4a 0.4,0.4 0 0 1 0.4,-0.4L 16.6 6a 0.4,0.4 0 0 1 0.4,0.4L 17 6.6a 0.4,0.4 0 0 1 -0.4,0.4L 16.4 7a 0.4,0.4 0 0 1 -0.4,-0.4z M 13 7.4a 0.4,0.4 0 0 1 0.4,-0.4L 13.6 7a 0.4,0.4 0 0 1 0.4,0.4L 14 8.6a 0.4,0.4 0 0 0 0.4,0.4L 14.6 9a 0.4,0.4 0 0 0 0.4,-0.4L 15 8.4a 0.4,0.4 0 0 1 0.4,-0.4L 16.6 8a 0.4,0.4 0 0 1 0.4,0.4L 17 8.6a 0.4,0.4 0 0 1 -0.4,0.4L 16.4 9a 0.4,0.4 0 0 0 -0.4,0.4L 16 11.6a 0.4,0.4 0 0 1 -0.4,0.4L 15.4 12a 0.4,0.4 0 0 1 -0.4,-0.4L 15 10.4a 0.4,0.4 0 0 0 -0.4,-0.4L 14.4 10a 0.4,0.4 0 0 0 -0.4,0.4L 14 12.6a 0.4,0.4 0 0 0 0.4,0.4L 15.6 13a 0.4,0.4 0 0 1 0.4,0.4L 16 14.6a 0.4,0.4 0 0 0 0.4,0.4L 16.6 15a 0.4,0.4 0 0 1 0.4,0.4L 17 15.6a 0.4,0.4 0 0 1 -0.4,0.4L 16.4 16a 0.4,0.4 0 0 0 -0.4,0.4L 16 17.6a 0.4,0.4 0 0 1 -0.4,0.4L 12.4 18a 0.4,0.4 0 0 0 -0.4,0.4L 12 18.6a 0.4,0.4 0 0 1 -0.4,0.4L 11.4 19a 0.4,0.4 0 0 1 -0.4,-0.4L 11 17.4a 0.4,0.4 0 0 1 0.4,-0.4L 13.6 17a 0.4,0.4 0 0 0 0.4,-0.4L 14 16.4a 0.4,0.4 0 0 1 0.4,-0.4L 14.6 16a 0.4,0.4 0 0 0 0.4,-0.4L 15 14.4a 0.4,0.4 0 0 0 -0.4,-0.4L 14.4 14a 0.4,0.4 0 0 0 -0.4,0.4L 14 14.6a 0.4,0.4 0 0 1 -0.4,0.4L 12.4 15a 0.4,0.4 0 0 0 -0.4,0.4L 12 15.6a 0.4,0.4 0 0 1 -0.4,0.4L 11.4 16a 0.4,0.4 0 0 1 -0.4,-0.4L 11 14.4a 0.4,0.4 0 0 1 0.4,-0.4L 12.6 14a 0.4,0.4 0 0 0 0.4,-0.4L 13 13.4a 0.4,0.4 0 0 0 -0.4,-0.4L 11.4 13a 0.4,0.4 0 0 1 -0.4,-0.4L 11 12.4a 0.4,0.4 0 0 0 -0.4,-0.4L 10.4 12a 0.4,0.4 0 0 0 -0.4,0.4L 10 14.6a 0.4,0.4 0 0 1 -0.4,0.4L 9.4 15a 0.4,0.4 0 0 0 -0.4,0.4L 9 17.6a 0.4,0.4 0 0 1 -0.4,0.4L 8.4 18a 0.4,0.4 0 0 1 -0.4,-0.4L 8 17.4a 0.4,0.4 0 0 0 -0.4,-0.4L 5.4 17a 0.4,0.4 0 0 1 -0.4,-0.4L 5 15.4a 0.4,0.4 0 0 1 0.4,-0.4L 5.6 15a 0.4,0.4 0 0 1 0.4,0.4L 6 15.6a 0.4,0.4 0 0 0 0.4,0.4L 6.6 16a 0.4,0.4 0 0 0 0.4,-0.4L 7 15.4a 0.4,0.4 0 0 0 -0.4,-0.4L 6.4 15a 0.4,0.4 0 0 1 -0.4,-0.4L 6 14.4a 0.4,0.4 0 0 1 0.4,-0.4L 6.6 14a 0.4,0.4 0 0 0 0.4,-0.4L 7 13.4a 0.4,0.4 0 0 0 -0.4,-0.4L 6.4 13a 0.4,0.4 0 0 0 -0.4,0.4L 6 13.6a 0.4,0.4 0 0 1 -0.4,0.4L 5.4 14a 0.4,0.4 0 0 0 -0.4,0.4L 5 14.6a 0.4,0.4 0 0 1 -0.4,0.4L 4.4 15a 0.4,0.4 0 0 0 -0.4,0.4L 4 16.6a 0.4,0.4 0 0 1 -0.4,0.4L 3.4 17a 0.4,0.4 0 0 1 -0.4,-0.4L 3 16.4a 0.4,0.4 0 0 0 -0.4,-0.4L 2.4 16a 0.4,0.4 0 0 1 -0.4,-0.4L 2 15.4a 0.4,0.4 0 0 1 0.4,-0.4L 2.6 15a 0.4,0.4 0 0 0 0.4,-0.4L 3 13.4a 0.4,0.4 0 0 1 0.4,-0.4L 3.6 13a 0.4,0.4 0 0 0 0.4,-0.4L 4 12.4a 0.4,0.4 0 0 1 0.4,-0.4L 7.6 12a 0.4,0.4 0 0 0 0.4,-0.4L 8 10.4a 0.4,0.4 0 0 1 0.4,-0.4L 8.6 10a 0.4,0.4 0 0 1 0.4,0.4L 9 10.6a 0.4,0.4 0 0 0 0.4,0.4L 9.6 11a 0.4,0.4 0 0 0 0.4,-0.4L 10 10.4a 0.4,0.4 0 0 1 0.4,-0.4L 11.6 10a 0.4,0.4 0 0 1 0.4,0.4L 12 10.6a 0.4,0.4 0 0 0 0.4,0.4L 12.6 11a 0.4,0.4 0 0 0 0.4,-0.4L 13 10.4a 0.4,0.4 0 0 0 -0.4,-0.4L 12.4 10a 0.4,0.4 0 0 1 -0.4,-0.4L 12 9.4a 0.4,0.4 0 0 1 0.4,-0.4L 12.6 9a 0.4,0.4 0 0 0 0.4,-0.4zM 8 13.4a 0.4,0.4 0 0 1 0.4,-0.4L 8.6 13a 0.4,0.4 0 0 1 0.4,0.4L 9 13.6a 0.4,0.4 0 0 1 -0.4,0.4L 8.4 14a 0.4,0.4 0 0 1 -0.4,-0.4z M 0 8.4a 0.4,0.4 0 0 1 0.4,-0.4L 1.6 8a 0.4,0.4 0 0 1 0.4,0.4L 2 8.6a 0.4,0.4 0 0 1 -0.4,0.4L 1.4 9a 0.4,0.4 0 0 0 -0.4,0.4L 1 9.6a 0.4,0.4 0 0 0 0.4,0.4L 1.6 10a 0.4,0.4 0 0 0 0.4,-0.4L 2 9.4a 0.4,0.4 0 0 1 0.4,-0.4L 2.6 9a 0.4,0.4 0 0 1 0.4,0.4L 3 10.6a 0.4,0.4 0 0 1 -0.4,0.4L 0.4 11a 0.4,0.4 0 0 1 -0.4,-0.4z M 3 8.4a 0.4,0.4 0 0 1 0.4,-0.4L 4.6 8a 0.4,0.4 0 0 1 0.4,0.4L 5 8.6a 0.4,0.4 0 0 0 0.4,0.4L 5.6 9a 0.4,0.4 0 0 1 0.4,0.4L 6 9.6a 0.4,0.4 0 0 0 0.4,0.4L 6.6 10a 0.4,0.4 0 0 1 0.4,0.4L 7 10.6a 0.4,0.4 0 0 1 -0.4,0.4L 5.4 11a 0.4,0.4 0 0 1 -0.4,-0.4L 5 10.4a 0.4,0.4 0 0 0 -0.4,-0.4L 4.4 10a 0.4,0.4 0 0 1 -0.4,-0.4L 4 9.4a 0.4,0.4 0 0 0 -0.4,-0.4L 3.4 9a 0.4,0.4 0 0 1 -0.4,-0.4z M 6 8.4a 0.4,0.4 0 0 1 0.4,-0.4L 6.6 8a 0.4,0.4 0 0 1 0.4,0.4L 7 8.6a 0.4,0.4 0 0 1 -0.4,0.4L 6.4 9a 0.4,0.4 0 0 1 -0.4,-0.4z M 18 8.4a 0.4,0.4 0 0 1 0.4,-0.4L 18.6 8a 0.4,0.4 0 0 1 0.4,0.4L 19 8.6a 0.4,0.4 0 0 1 -0.4,0.4L 18.4 9a 0.4,0.4 0 0 1 -0.4,-0.4z M 24 8.4a 0.4,0.4 0 0 1 0.4,-0.4L 24.6 8a 0.4,0.4 0 0 1 0.4,0.4L 25 8.6a 0.4,0.4 0 0 1 -0.4,0.4L 24.4 9a 0.4,0.4 0 0 1 -0.4,-0.4z M 7 9.4a 0.4,0.4 0 0 1 0.4,-0.4L 7.6 9a 0.4,0.4 0 0 1 0.4,0.4L 8 9.6a 0.4,0.4 0 0 1 -0.4,0.4L 7.4 10a 0.4,0.4 0 0 1 -0.4,-0.4z M 17 9.4a 0.4,0.4 0 0 1 0.4,-0.4L 17.6 9a 0.4,0.4 0 0 1 0.4,0.4L 18 10.6a 0.4,0.4 0 0 1 -0.4,0.4L 17.4 11a 0.4,0.4 0 0 1 -0.4,-0.4z M 19 9.4a 0.4,0.4 0 0 1 0.4,-0.4L 23.6 9a 0.4,0.4 0 0 1 0.4,0.4L 24 9.6a 0.4,0.4 0 0 1 -0.4,0.4L 22.4 10a 0.4,0.4 0 0 0 -0.4,0.4L 22 10.6a 0.4,0.4 0 0 0 0.4,0.4L 23.6 11a 0.4,0.4 0 0 0 0.4,-0.4L 24 10.4a 0.4,0.4 0 0 1 0.4,-0.4L 24.6 10a 0.4,0.4 0 0 1 0.4,0.4L 25 12.6a 0.4,0.4 0 0 1 -0.4,0.4L 24.4 13a 0.4,0.4 0 0 1 -0.4,-0.4L 24 12.4a 0.4,0.4 0 0 0 -0.4,-0.4L 20.4 12a 0.4,0.4 0 0 0 -0.4,0.4L 20 12.6a 0.4,0.4 0 0 1 -0.4,0.4L 18.4 13a 0.4,0.4 0 0 1 -0.4,-0.4L 18 11.4a 0.4,0.4 0 0 1 0.4,-0.4L 18.6 11a 0.4,0.4 0 0 0 0.4,-0.4z M 16 12.4a 0.4,0.4 0 0 1 0.4,-0.4L 16.6 12a 0.4,0.4 0 0 1 0.4,0.4L 17 12.6a 0.4,0.4 0 0 1 -0.4,0.4L 16.4 13a 0.4,0.4 0 0 1 -0.4,-0.4z M 0 13.4a 0.4,0.4 0 0 1 0.4,-0.4L 1.6 13a 0.4,0.4 0 0 1 0.4,0.4L 2 14.6a 0.4,0.4 0 0 1 -0.4,0.4L 1.4 15a 0.4,0.4 0 0 0 -0.4,0.4L 1 16.6a 0.4,0.4 0 0 1 -0.4,0.4L 0.4 17a 0.4,0.4 0 0 1 -0.4,-0.4z M 17 13.4a 0.4,0.4 0 0 1 0.4,-0.4L 17.6 13a 0.4,0.4 0 0 1 0.4,0.4L 18 13.6a 0.4,0.4 0 0 1 -0.4,0.4L 17.4 14a 0.4,0.4 0 0 1 -0.4,-0.4z M 20 13.4a 0.4,0.4 0 0 1 0.4,-0.4L 20.6 13a 0.4,0.4 0 0 1 0.4,0.4L 21 13.6a 0.4,0.4 0 0 0 0.4,0.4L 22.6 14a 0.4,0.4 0 0 0 0.4,-0.4L 23 13.4a 0.4,0.4 0 0 1 0.4,-0.4L 23.6 13a 0.4,0.4 0 0 1 0.4,0.4L 24 13.6a 0.4,0.4 0 0 0 0.4,0.4L 24.6 14a 0.4,0.4 0 0 1 0.4,0.4L 25 15.6a 0.4,0.4 0 0 1 -0.4,0.4L 24.4 16a 0.4,0.4 0 0 1 -0.4,-0.4L 24 15.4a 0.4,0.4 0 0 0 -0.4,-0.4L 23.4 15a 0.4,0.4 0 0 0 -0.4,0.4L 23 15.6a 0.4,0.4 0 0 0 0.4,0.4L 23.6 16a 0.4,0.4 0 0 1 0.4,0.4L 24 17.6a 0.4,0.4 0 0 1 -0.4,0.4L 22.4 18a 0.4,0.4 0 0 1 -0.4,-0.4L 22 16.4a 0.4,0.4 0 0 0 -0.4,-0.4L 21.4 16a 0.4,0.4 0 0 1 -0.4,-0.4L 21 15.4a 0.4,0.4 0 0 0 -0.4,-0.4L 20.4 15a 0.4,0.4 0 0 1 -0.4,-0.4z M 18 14.4a 0.4,0.4 0 0 1 0.4,-0.4L 18.6 14a 0.4,0.4 0 0 1 0.4,0.4L 19 14.6a 0.4,0.4 0 0 0 0.4,0.4L 19.6 15a 0.4,0.4 0 0 1 0.4,0.4L 20 15.6a 0.4,0.4 0 0 1 -0.4,0.4L 18.4 16a 0.4,0.4 0 0 1 -0.4,-0.4z M 10 16.4a 0.4,0.4 0 0 1 0.4,-0.4L 10.6 16a 0.4,0.4 0 0 1 0.4,0.4L 11 16.6a 0.4,0.4 0 0 1 -0.4,0.4L 10.4 17a 0.4,0.4 0 0 1 -0.4,-0.4z M 9 18.4a 0.4,0.4 0 0 1 0.4,-0.4L 9.6 18a 0.4,0.4 0 0 1 0.4,0.4L 10 18.6a 0.4,0.4 0 0 0 0.4,0.4L 10.6 19a 0.4,0.4 0 0 1 0.4,0.4L 11 24.6a 0.4,0.4 0 0 1 -0.4,0.4L 10.4 25a 0.4,0.4 0 0 1 -0.4,-0.4L 10 24.4a 0.4,0.4 0 0 0 -0.4,-0.4L 9.4 24a 0.4,0.4 0 0 0 -0.4,0.4L 9 24.6a 0.4,0.4 0 0 1 -0.4,0.4L 8.4 25a 0.4,0.4 0 0 1 -0.4,-0.4L 8 23.4a 0.4,0.4 0 0 1 0.4,-0.4L 9.6 23a 0.4,0.4 0 0 0 0.4,-0.4L 10 21.4a 0.4,0.4 0 0 0 -0.4,-0.4L 9.4 21a 0.4,0.4 0 0 0 -0.4,0.4L 9 21.6a 0.4,0.4 0 0 1 -0.4,0.4L 8.4 22a 0.4,0.4 0 0 1 -0.4,-0.4L 8 20.4a 0.4,0.4 0 0 1 0.4,-0.4L 8.6 20a 0.4,0.4 0 0 0 0.4,-0.4z M 24 18.4a 0.4,0.4 0 0 1 0.4,-0.4L 24.6 18a 0.4,0.4 0 0 1 0.4,0.4L 25 18.6a 0.4,0.4 0 0 1 -0.4,0.4L 24.4 19a 0.4,0.4 0 0 1 -0.4,-0.4z M 12 19.4a 0.4,0.4 0 0 1 0.4,-0.4L 12.6 19a 0.4,0.4 0 0 1 0.4,0.4L 13 19.6a 0.4,0.4 0 0 0 0.4,0.4L 13.6 20a 0.4,0.4 0 0 0 0.4,-0.4L 14 19.4a 0.4,0.4 0 0 1 0.4,-0.4L 15.6 19a 0.4,0.4 0 0 1 0.4,0.4L 16 20.6a 0.4,0.4 0 0 0 0.4,0.4L 18.6 21a 0.4,0.4 0 0 1 0.4,0.4L 19 21.6a 0.4,0.4 0 0 1 -0.4,0.4L 15.4 22a 0.4,0.4 0 0 0 -0.4,0.4L 15 24.6a 0.4,0.4 0 0 1 -0.4,0.4L 13.4 25a 0.4,0.4 0 0 1 -0.4,-0.4L 13 24.4a 0.4,0.4 0 0 1 0.4,-0.4L 13.6 24a 0.4,0.4 0 0 0 0.4,-0.4L 14 21.4a 0.4,0.4 0 0 0 -0.4,-0.4L 12.4 21a 0.4,0.4 0 0 1 -0.4,-0.4z M 23 19.4a 0.4,0.4 0 0 1 0.4,-0.4L 23.6 19a 0.4,0.4 0 0 1 0.4,0.4L 24 19.6a 0.4,0.4 0 0 1 -0.4,0.4L 23.4 20a 0.4,0.4 0 0 1 -0.4,-0.4z M 24 20.4a 0.4,0.4 0 0 1 0.4,-0.4L 24.6 20a 0.4,0.4 0 0 1 0.4,0.4L 25 24.6a 0.4,0.4 0 0 1 -0.4,0.4L 24.4 25a 0.4,0.4 0 0 1 -0.4,-0.4L 24 24.4a 0.4,0.4 0 0 0 -0.4,-0.4L 22.4 24a 0.4,0.4 0 0 1 -0.4,-0.4L 22 23.4a 0.4,0.4 0 0 0 -0.4,-0.4L 21.4 23a 0.4,0.4 0 0 0 -0.4,0.4L 21 23.6a 0.4,0.4 0 0 1 -0.4,0.4L 18.4 24a 0.4,0.4 0 0 0 -0.4,0.4L 18 24.6a 0.4,0.4 0 0 1 -0.4,0.4L 16.4 25a 0.4,0.4 0 0 1 -0.4,-0.4L 16 24.4a 0.4,0.4 0 0 1 0.4,-0.4L 16.6 24a 0.4,0.4 0 0 0 0.4,-0.4L 17 23.4a 0.4,0.4 0 0 1 0.4,-0.4L 19.6 23a 0.4,0.4 0 0 0 0.4,-0.4L 20 22.4a 0.4,0.4 0 0 1 0.4,-0.4L 22.6 22a 0.4,0.4 0 0 0 0.4,-0.4L 23 21.4a 0.4,0.4 0 0 1 0.4,-0.4L 23.6 21a 0.4,0.4 0 0 0 0.4,-0.4z M 12 22.4a 0.4,0.4 0 0 1 0.4,-0.4L 12.6 22a 0.4,0.4 0 0 1 0.4,0.4L 13 22.6a 0.4,0.4 0 0 1 -0.4,0.4L 12.4 23a 0.4,0.4 0 0 1 -0.4,-0.4z M 21 24.4a 0.4,0.4 0 0 1 0.4,-0.4L 21.6 24a 0.4,0.4 0 0 1 0.4,0.4L 22 24.6a 0.4,0.4 0 0 1 -0.4,0.4L 21.4 25a 0.4,0.4 0 0 1 -0.4,-0.4z"></path><path id="qr squares" d="M1.05,0h4.9a1.05,1.05 0 0 1 1.05,1.05v4.9a1.05,1.05 0 0 1 -1.05,1.05h-4.9a1.05,1.05 0 0 1 -1.05,-1.05v-4.9a1.05,1.05 0 0 1 1.05,-1.05zM1.75,1h3.5a0.75,0.75 0 0 1 0.75,0.75v3.5a0.75,0.75 0 0 1 -0.75,0.75h-3.5a0.75,0.75 0 0 1 -0.75,-0.75v-3.5a0.75,0.75 0 0 1 0.75,-0.75zM2.45,2h2.1a0.44999999999999996,0.44999999999999996 0 0 1 0.44999999999999996,0.44999999999999996v2.1a0.44999999999999996,0.44999999999999996 0 0 1 -0.44999999999999996,0.44999999999999996h-2.1a0.44999999999999996,0.44999999999999996 0 0 1 -0.44999999999999996,-0.44999999999999996v-2.1a0.44999999999999996,0.44999999999999996 0 0 1 0.44999999999999996,-0.44999999999999996z M19.05,0h4.9a1.05,1.05 0 0 1 1.05,1.05v4.9a1.05,1.05 0 0 1 -1.05,1.05h-4.9a1.05,1.05 0 0 1 -1.05,-1.05v-4.9a1.05,1.05 0 0 1 1.05,-1.05zM19.75,1h3.5a0.75,0.75 0 0 1 0.75,0.75v3.5a0.75,0.75 0 0 1 -0.75,0.75h-3.5a0.75,0.75 0 0 1 -0.75,-0.75v-3.5a0.75,0.75 0 0 1 0.75,-0.75zM20.45,2h2.1a0.44999999999999996,0.44999999999999996 0 0 1 0.44999999999999996,0.44999999999999996v2.1a0.44999999999999996,0.44999999999999996 0 0 1 -0.44999999999999996,0.44999999999999996h-2.1a0.44999999999999996,0.44999999999999996 0 0 1 -0.44999999999999996,-0.44999999999999996v-2.1a0.44999999999999996,0.44999999999999996 0 0 1 0.44999999999999996,-0.44999999999999996z M1.05,18h4.9a1.05,1.05 0 0 1 1.05,1.05v4.9a1.05,1.05 0 0 1 -1.05,1.05h-4.9a1.05,1.05 0 0 1 -1.05,-1.05v-4.9a1.05,1.05 0 0 1 1.05,-1.05zM1.75,19h3.5a0.75,0.75 0 0 1 0.75,0.75v3.5a0.75,0.75 0 0 1 -0.75,0.75h-3.5a0.75,0.75 0 0 1 -0.75,-0.75v-3.5a0.75,0.75 0 0 1 0.75,-0.75zM2.45,20h2.1a0.44999999999999996,0.44999999999999996 0 0 1 0.44999999999999996,0.44999999999999996v2.1a0.44999999999999996,0.44999999999999996 0 0 1 -0.44999999999999996,0.44999999999999996h-2.1a0.44999999999999996,0.44999999999999996 0 0 1 -0.44999999999999996,-0.44999999999999996v-2.1a0.44999999999999996,0.44999999999999996 0 0 1 0.44999999999999996,-0.44999999999999996zM16.75,16h3.5a0.75,0.75 0 0 1 0.75,0.75v3.5a0.75,0.75 0 0 1 -0.75,0.75h-3.5a0.75,0.75 0 0 1 -0.75,-0.75v-3.5a0.75,0.75 0 0 1 0.75,-0.75zM17.45,17h2.1a0.44999999999999996,0.44999999999999996 0 0 1 0.44999999999999996,0.44999999999999996v2.1a0.44999999999999996,0.44999999999999996 0 0 1 -0.44999999999999996,0.44999999999999996h-2.1a0.44999999999999996,0.44999999999999996 0 0 1 -0.44999999999999996,-0.44999999999999996v-2.1a0.44999999999999996,0.44999999999999996 0 0 1 0.44999999999999996,-0.44999999999999996zM18.15,18h0.7a0.15,0.15 0 0 1 0.15,0.15v0.7a0.15,0.15 0 0 1 -0.15,0.15h-0.7a0.15,0.15 0 0 1 -0.15,-0.15v-0.7a0.15,0.15 0 0 1 0.15,-0.15z" fill-rule="evenodd" fill-opacity="1" fill="rgb(0, 0, 0)"></path></svg>